<?xml version="1.0" encoding="UTF-8" standalone="no"?>
<svg width="360px" height="360px" viewBox="0 0 360 360" version="1.1" xmlns="http://www.w3.org/2000/svg" xmlns:xlink="http://www.w3.org/1999/xlink" xmlns:sketch="http://www.bohemiancoding.com/sketch/ns">
    <!-- Generator: Sketch 3.4.2 (15857) - http://www.bohemiancoding.com/sketch -->
    <title>LaleIconColor</title>
    <desc>Created with Sketch.</desc>
    <defs></defs>
    <g id="Page-1" stroke="none" stroke-width="1" fill="none" fill-rule="evenodd" sketch:type="MSPage">
        <g id="LaleIconColor" sketch:type="MSArtboardGroup">
            <g id="Group" sketch:type="MSLayerGroup">
                <path d="M180,360 C279.408,360 360,279.408 360,180 C360,80.592 279.408,0 180,0 C80.592,0 0,80.592 0,180 C0,279.408 80.592,360 180,360 L180,360 Z" id="Oval-1_5_" fill="#263238" sketch:type="MSShapeGroup"></path>
                <g id="tulip_1_" transform="translate(102.000000, 114.000000)" sketch:type="MSShapeGroup">
                    <path d="M80.25,82.002 L17.25,53.64 L80.25,4.002 L143.25,53.64 L80.25,82.002 L80.25,82.002 Z" id="Fill-1_1_" fill="#F89D66"></path>
                    <path d="M5.25,72.474 L5.25,16.002 L80.25,51.3 L155.25,16.002 L155.25,72.474 C155.25,114.828 125.25,136.002 80.25,136.002 C35.25,136.002 5.25,114.822 5.25,72.474 L5.25,72.474 Z" id="Fill-3_1_" fill="#F37049"></path>
                </g>
                <path d="M27.174,275.58 C30.564,277.77 42.384,269.472 47.148,265.866 C65.802,250.902 86.196,253.758 101.478,263.346 C119.244,271.926 146.82,282.036 154.38,280.818 C176.754,276.552 208.026,279.96 224.712,269.85 C241.392,259.746 284.394,237.282 271.188,220.914 C265.83,215.802 257.814,219.45 252.066,221.886 C243.378,225.744 236.136,232.032 228.594,237.72 C214.278,246.534 196.788,244.05 180.888,246.354 C167.466,247.422 153.114,242.874 144.54,231.786 C154.878,229.266 171.948,230.076 180.978,233.73 C190.38,235.626 201.888,232.416 206.724,223.35 C210.186,215.688 202.932,206.862 195.552,205.866 C176.232,200.898 155.232,202.176 137.058,192.762 C120.972,185.682 103.8,177.798 86.136,177.996 C82.062,178.056 77.94,178.536 73.83,179.556 C58.56,188.298 28.434,203.328 7.89,225.582" id="Shape_1_" fill="#FFFFFF" sketch:type="MSShapeGroup"></path>
                <path d="M180,12 C272.634,12 348,87.366 348,180 C348,272.634 272.634,348 180,348 C87.366,348 12,272.634 12,180 C12,87.366 87.366,12 180,12 L180,12 Z M180,0 C80.592,0 0,80.592 0,180 C0,279.408 80.592,360 180,360 C279.408,360 360,279.408 360,180 C360,80.592 279.408,0 180,0 L180,0 L180,0 Z" id="Shape" fill="#263238" sketch:type="MSShapeGroup"></path>
            </g>
        </g>
    </g>
</svg>